<svg width="429" height="199" viewBox="0 0 429 199" fill="none" xmlns="http://www.w3.org/2000/svg">
<path d="M89.1263 39.3473H64V99H84.4706V85.5781H89.1263C102.724 85.5781 113.588 75.4372 113.588 62.3881C113.588 49.7119 102.724 39.3473 89.1263 39.3473ZM81.884 62.4627C81.884 59.2564 84.4706 56.7211 87.5744 56.7211C90.6782 56.7211 93.1909 59.2564 93.1909 62.4627C93.1909 65.5945 90.6782 68.1297 87.5744 68.1297C84.4706 68.1297 81.884 65.5945 81.884 62.4627Z" fill="white"/>
<path d="M146.043 39.3473H131.854V50.1593H115.596V85.5781H164.148V57.6159C164.148 48.2952 155.28 39.3473 146.043 39.3473ZM134.44 66.4893C134.44 63.4321 136.879 61.046 139.835 61.046C142.791 61.046 145.156 63.4321 145.156 66.4893C145.156 69.4719 142.791 71.858 139.835 71.858C136.879 71.858 134.44 69.4719 134.44 66.4893Z" fill="white"/>
<path d="M167.129 85.5781H188.339V57.5414H198.833V39.3473H188.339V26H167.129V85.5781Z" fill="white"/>
<path d="M201.193 85.5781H222.403V57.5414H232.896V39.3473H222.403V26H201.193V85.5781Z" fill="white"/>
<path d="M253.289 85.5781H267.478V74.7661H283.736V39.3473H235.183V67.3095C235.183 76.6302 244.051 85.5781 253.289 85.5781ZM254.175 58.4362C254.175 55.4535 256.54 53.0674 259.496 53.0674C262.452 53.0674 264.891 55.4535 264.891 58.4362C264.891 61.4934 262.452 63.8795 259.496 63.8795C256.54 63.8795 254.175 61.4934 254.175 58.4362Z" fill="white"/>
<path d="M286.497 85.5781H307.706V57.5414H318.2V39.3473H286.497V85.5781Z" fill="white"/>
<path d="M320.56 85.5781H341.031V60.4494C341.031 57.9888 342.878 56.1246 345.317 56.1246C347.756 56.1246 349.529 57.9888 349.529 60.4494V85.5781H370V39.3473H320.56V85.5781Z" fill="white"/>
<circle cx="14.7647" cy="101.765" r="7.36842" transform="rotate(40.0982 14.7647 101.765)" fill="#9DB4AB"/>
<path fill-rule="evenodd" clip-rule="evenodd" d="M41.3079 85.4952C45.3523 85.3731 49.3294 83.5954 52.1406 80.2568C57.3828 74.031 56.5856 64.7343 50.3597 59.492C44.1339 54.2497 34.8372 55.047 29.5949 61.2728C26.7837 64.6114 25.7092 68.8331 26.2775 72.8392L14.3246 87.0347C10.2802 87.1568 6.30312 88.9344 3.49191 92.2731C-1.75037 98.4989 -0.953096 107.796 5.27273 113.038C11.4986 118.28 20.7953 117.483 26.0376 111.257C28.8488 107.918 29.9232 103.697 29.355 99.6907L41.3079 85.4952ZM36.1219 76.4012C39.2349 79.0224 43.8832 78.6237 46.5044 75.5108C49.1255 72.3979 48.7269 67.7496 45.6139 65.1284C42.501 62.5073 37.8527 62.9059 35.2315 66.0188C32.6104 69.1317 33.009 73.7801 36.1219 76.4012Z" fill="white"/>
<path fill-rule="evenodd" clip-rule="evenodd" d="M414 124C422.284 124 429 117.284 429 109C429 100.716 422.284 94 414 94C405.716 94 399 100.716 399 109C399 117.284 405.716 124 414 124ZM414 115.923C417.824 115.923 420.923 112.824 420.923 109C420.923 105.176 417.824 102.077 414 102.077C410.176 102.077 407.077 105.176 407.077 109C407.077 112.824 410.176 115.923 414 115.923Z" fill="#B6D1C7"/>
<path fill-rule="evenodd" clip-rule="evenodd" d="M28 199C36.2843 199 43 192.284 43 184C43 175.716 36.2843 169 28 169C19.7157 169 13 175.716 13 184C13 192.284 19.7157 199 28 199ZM28 190.923C31.8235 190.923 34.9231 187.824 34.9231 184C34.9231 180.176 31.8235 177.077 28 177.077C24.1765 177.077 21.0769 180.176 21.0769 184C21.0769 187.824 24.1765 190.923 28 190.923Z" fill="#B6D1C7"/>
<path d="M17 176.5L28 173.5L40.4856 176.5V122.379C40.4856 119.502 42.3378 117.438 44.7085 117.438C47.0793 117.438 48.7833 119.502 48.7833 122.379V158H72.343V122.379C72.343 119.502 74.2693 117.438 76.4919 117.438C78.8627 117.438 80.6407 119.502 80.6407 122.379V158H104.126V99H17V176.5Z" fill="#B6D1C7"/>
<path d="M103.002 158H127.599L131.525 143.471H141.749V158H165.457V99H118.856L103.002 158ZM132.562 121.862C132.562 118.544 135.304 115.889 138.563 115.889C141.823 115.889 144.49 118.544 144.49 121.862C144.49 125.107 141.823 127.762 138.563 127.762C135.304 127.762 132.562 125.107 132.562 121.862Z" fill="#B6D1C7"/>
<path d="M167.837 158H188.507C201.25 158 207.992 148.339 204.51 135.138L200.213 118.912H210.956V99H191.249C178.506 99 171.764 108.883 175.394 122.526L179.543 138.087H167.837V158Z" fill="#B6D1C7"/>
<path d="M217.594 158H241.82V118.912H253.304V99H206.111V118.912H217.594V158Z" fill="#B6D1C7"/>
<path d="M255.685 158H301.396V138.087H288.061V126.73H281.393C279.244 126.73 277.688 125.108 277.688 122.821C277.688 120.535 279.244 118.912 281.393 118.912H301.396V99H255.685V158Z" fill="#B6D1C7"/>
<path d="M304.159 158H327.645V143.471H336.165V158H359.651V133.589H354.242C356.835 130.049 358.317 125.845 358.317 121.199C358.317 108.956 347.426 99 333.794 99H304.159V158ZM324.682 121.862C324.682 118.544 327.423 115.889 330.683 115.889C333.942 115.889 336.61 118.544 336.61 121.862C336.61 125.107 333.942 127.762 330.683 127.762C327.423 127.762 324.682 125.107 324.682 121.862Z" fill="#B6D1C7"/>
<path d="M361.881 158H382.552C395.295 158 402.037 148.339 398.554 135.138L394.257 118.912H405V99H385.293C372.55 99 365.808 108.883 369.438 122.526L373.587 138.087H361.881V158Z" fill="#B6D1C7"/>
<path fill-rule="evenodd" clip-rule="evenodd" d="M229 180C237.284 180 244 173.284 244 165C244 156.716 237.284 150 229 150C220.716 150 214 156.716 214 165C214 173.284 220.716 180 229 180ZM229 171.923C232.824 171.923 235.923 168.824 235.923 165C235.923 161.176 232.824 158.077 229 158.077C225.176 158.077 222.077 161.176 222.077 165C222.077 168.824 225.176 171.923 229 171.923Z" fill="#B6D1C7"/>
</svg>
