<svg width="100" height="100" viewBox="0 0 100 100" fill="none" xmlns="http://www.w3.org/2000/svg">
<circle cx="50" cy="50" r="46" fill="#9DB4AB" stroke="#413B3B" stroke-width="8"/>
<path d="M32.4258 32.8086L33.5195 35.8555C32.3346 36.2852 31.5273 37.0469 31.0977 38.1406C30.668 39.2214 30.4531 40.4714 30.4531 41.8906V45.875C30.4531 47.1901 30.1602 48.3815 29.5742 49.4492C29.0013 50.5169 28.0898 51.3698 26.8398 52.0078C25.5898 52.6328 23.9557 52.9453 21.9375 52.9453V49.9766C23.1745 49.9766 24.0599 49.6055 24.5938 48.8633C25.1406 48.1211 25.4141 47.125 25.4141 45.875V41.8906C25.4141 40.5234 25.6224 39.2474 26.0391 38.0625C26.4688 36.8646 27.1914 35.8164 28.207 34.918C29.2357 34.0065 30.6419 33.3034 32.4258 32.8086ZM33.5195 68.0039L32.4258 71.0703C30.6419 70.5625 29.2357 69.8529 28.207 68.9414C27.1914 68.043 26.4688 66.9948 26.0391 65.7969C25.6224 64.612 25.4141 63.3359 25.4141 61.9688V57.9844C25.4141 57.151 25.2904 56.4284 25.043 55.8164C24.8086 55.2044 24.4375 54.7357 23.9297 54.4102C23.4219 54.0716 22.7578 53.9023 21.9375 53.9023V50.9141C23.9557 50.9141 25.5898 51.2331 26.8398 51.8711C28.0898 52.4961 29.0013 53.3424 29.5742 54.4102C30.1602 55.4779 30.4531 56.6693 30.4531 57.9844V61.9688C30.4531 62.9193 30.5443 63.7982 30.7266 64.6055C30.9219 65.4128 31.2344 66.1094 31.6641 66.6953C32.1068 67.2812 32.7253 67.7174 33.5195 68.0039ZM46.2734 45.1719C46.2734 44.3385 46.5599 43.6419 47.1328 43.082C47.7188 42.5221 48.4935 42.2422 49.457 42.2422C50.4206 42.2422 51.1888 42.5221 51.7617 43.082C52.3477 43.6419 52.6406 44.3385 52.6406 45.1719C52.6406 46.0052 52.3477 46.7018 51.7617 47.2617C51.1888 47.8216 50.4206 48.1016 49.457 48.1016C48.4935 48.1016 47.7188 47.8216 47.1328 47.2617C46.5599 46.7018 46.2734 46.0052 46.2734 45.1719ZM52.0938 59.2539L52.0742 63.0234C52.0742 64.4688 51.7096 65.9271 50.9805 67.3984C50.2643 68.8698 49.3529 70.0742 48.2461 71.0117L45.3164 69.5078C45.6419 68.9089 45.9609 68.3099 46.2734 67.7109C46.5859 67.112 46.8464 66.4544 47.0547 65.7383C47.263 65.0221 47.3672 64.2083 47.3672 63.2969V59.2539H52.0938ZM65.3359 35.8555L66.4297 32.8086C68.2266 33.3034 69.6328 34.0065 70.6484 34.918C71.6641 35.8164 72.3802 36.8646 72.7969 38.0625C73.2266 39.2474 73.4414 40.5234 73.4414 41.8906V45.875C73.4414 46.7083 73.5586 47.431 73.793 48.043C74.0273 48.6549 74.3984 49.1302 74.9062 49.4688C75.4271 49.8073 76.0977 49.9766 76.918 49.9766V52.8672C74.8997 52.8672 73.2656 52.5612 72.0156 51.9492C70.7656 51.3372 69.8477 50.5039 69.2617 49.4492C68.6758 48.3815 68.3828 47.1901 68.3828 45.875V41.8906C68.3828 40.9401 68.2917 40.0612 68.1094 39.2539C67.9401 38.4466 67.6341 37.75 67.1914 37.1641C66.7487 36.5781 66.1302 36.1419 65.3359 35.8555ZM66.4297 71.0703L65.3359 68.0039C66.1302 67.7174 66.7487 67.2812 67.1914 66.6953C67.6341 66.1094 67.9401 65.4128 68.1094 64.6055C68.2917 63.7982 68.3828 62.9193 68.3828 61.9688V57.9844C68.3828 56.6693 68.6758 55.4844 69.2617 54.4297C69.8477 53.375 70.7656 52.5417 72.0156 51.9297C73.2656 51.3047 74.8997 50.9922 76.918 50.9922V53.9023C75.694 53.9023 74.8086 54.2734 74.2617 55.0156C73.7148 55.7578 73.4414 56.7474 73.4414 57.9844V61.9688C73.4414 63.3359 73.2266 64.612 72.7969 65.7969C72.3802 66.9948 71.6641 68.043 70.6484 68.9414C69.6328 69.8529 68.2266 70.5625 66.4297 71.0703Z" fill="#413B3B"/>
</svg>
