<svg width="100" height="100" viewBox="0 0 100 100" fill="none" xmlns="http://www.w3.org/2000/svg">
<circle cx="50" cy="50" r="46" fill="#9DB4AB" stroke="#413B3B" stroke-width="8"/>
<path d="M37.4258 32.8086L38.5195 35.8555C37.3346 36.2852 36.5273 37.0469 36.0977 38.1406C35.668 39.2214 35.4531 40.4714 35.4531 41.8906V45.875C35.4531 47.1901 35.1602 48.3815 34.5742 49.4492C34.0013 50.5169 33.0898 51.3698 31.8398 52.0078C30.5898 52.6328 28.9557 52.9453 26.9375 52.9453V49.9766C28.1745 49.9766 29.0599 49.6055 29.5938 48.8633C30.1406 48.1211 30.4141 47.125 30.4141 45.875V41.8906C30.4141 40.5234 30.6224 39.2474 31.0391 38.0625C31.4688 36.8646 32.1914 35.8164 33.207 34.918C34.2357 34.0065 35.6419 33.3034 37.4258 32.8086ZM38.5195 68.0039L37.4258 71.0703C35.6419 70.5625 34.2357 69.8529 33.207 68.9414C32.1914 68.043 31.4688 66.9948 31.0391 65.7969C30.6224 64.612 30.4141 63.3359 30.4141 61.9688V57.9844C30.4141 57.151 30.2904 56.4284 30.043 55.8164C29.8086 55.2044 29.4375 54.7357 28.9297 54.4102C28.4219 54.0716 27.7578 53.9023 26.9375 53.9023V50.9141C28.9557 50.9141 30.5898 51.2331 31.8398 51.8711C33.0898 52.4961 34.0013 53.3424 34.5742 54.4102C35.1602 55.4779 35.4531 56.6693 35.4531 57.9844V61.9688C35.4531 62.9193 35.5443 63.7982 35.7266 64.6055C35.9219 65.4128 36.2344 66.1094 36.6641 66.6953C37.1068 67.2812 37.7253 67.7174 38.5195 68.0039ZM59.7891 35.8555L60.8828 32.8086C62.6797 33.3034 64.0859 34.0065 65.1016 34.918C66.1172 35.8164 66.8333 36.8646 67.25 38.0625C67.6797 39.2474 67.8945 40.5234 67.8945 41.8906V45.875C67.8945 46.7083 68.0117 47.431 68.2461 48.043C68.4805 48.6549 68.8516 49.1302 69.3594 49.4688C69.8802 49.8073 70.5508 49.9766 71.3711 49.9766V52.8672C69.3529 52.8672 67.7188 52.5612 66.4688 51.9492C65.2188 51.3372 64.3008 50.5039 63.7148 49.4492C63.1289 48.3815 62.8359 47.1901 62.8359 45.875V41.8906C62.8359 40.9401 62.7448 40.0612 62.5625 39.2539C62.3932 38.4466 62.0872 37.75 61.6445 37.1641C61.2018 36.5781 60.5833 36.1419 59.7891 35.8555ZM60.8828 71.0703L59.7891 68.0039C60.5833 67.7174 61.2018 67.2812 61.6445 66.6953C62.0872 66.1094 62.3932 65.4128 62.5625 64.6055C62.7448 63.7982 62.8359 62.9193 62.8359 61.9688V57.9844C62.8359 56.6693 63.1289 55.4844 63.7148 54.4297C64.3008 53.375 65.2188 52.5417 66.4688 51.9297C67.7188 51.3047 69.3529 50.9922 71.3711 50.9922V53.9023C70.1471 53.9023 69.2617 54.2734 68.7148 55.0156C68.168 55.7578 67.8945 56.7474 67.8945 57.9844V61.9688C67.8945 63.3359 67.6797 64.612 67.25 65.7969C66.8333 66.9948 66.1172 68.043 65.1016 68.9414C64.0859 69.8529 62.6797 70.5625 60.8828 71.0703Z" fill="#413F3F"/>
</svg>
