<svg width="800" height="800" viewBox="0 0 800 800" fill="none" xmlns="http://www.w3.org/2000/svg">
<circle cx="400" cy="400" r="400" fill="#413F3F"/>
<circle cx="400" cy="400" r="361" fill="#F8F4E2"/>
<path d="M275.971 216.49L287.455 248.482C275.014 252.994 266.537 260.992 262.025 272.477C257.514 283.824 255.258 296.949 255.258 311.852V353.688C255.258 367.496 252.182 380.006 246.029 391.217C240.014 402.428 230.443 411.383 217.318 418.082C204.193 424.645 187.035 427.926 165.844 427.926V396.754C178.832 396.754 188.129 392.857 193.734 385.064C199.477 377.271 202.348 366.812 202.348 353.688V311.852C202.348 297.496 204.535 284.098 208.91 271.656C213.422 259.078 221.01 248.072 231.674 238.639C242.475 229.068 257.24 221.686 275.971 216.49ZM287.455 586.041L275.971 618.238C257.24 612.906 242.475 605.455 231.674 595.885C221.01 586.451 213.422 575.445 208.91 562.867C204.535 550.426 202.348 537.027 202.348 522.672V480.836C202.348 472.086 201.049 464.498 198.451 458.072C195.99 451.646 192.094 446.725 186.762 443.307C181.43 439.752 174.457 437.975 165.844 437.975V406.598C187.035 406.598 204.193 409.947 217.318 416.646C230.443 423.209 240.014 432.096 246.029 443.307C252.182 454.518 255.258 467.027 255.258 480.836V522.672C255.258 532.652 256.215 541.881 258.129 550.357C260.18 558.834 263.461 566.148 267.973 572.301C272.621 578.453 279.115 583.033 287.455 586.041ZM510.785 248.482L522.27 216.49C541.137 221.686 555.902 229.068 566.566 238.639C577.23 248.072 584.75 259.078 589.125 271.656C593.637 284.098 595.893 297.496 595.893 311.852V353.688C595.893 362.438 597.123 370.025 599.584 376.451C602.045 382.877 605.941 387.867 611.273 391.422C616.742 394.977 623.783 396.754 632.396 396.754V427.105C611.205 427.105 594.047 423.893 580.922 417.467C567.797 411.041 558.158 402.291 552.006 391.217C545.854 380.006 542.777 367.496 542.777 353.688V311.852C542.777 301.871 541.82 292.643 539.906 284.166C538.129 275.689 534.916 268.375 530.268 262.223C525.619 256.07 519.125 251.49 510.785 248.482ZM522.27 618.238L510.785 586.041C519.125 583.033 525.619 578.453 530.268 572.301C534.916 566.148 538.129 558.834 539.906 550.357C541.82 541.881 542.777 532.652 542.777 522.672V480.836C542.777 467.027 545.854 454.586 552.006 443.512C558.158 432.438 567.797 423.688 580.922 417.262C594.047 410.699 611.205 407.418 632.396 407.418V437.975C619.545 437.975 610.248 441.871 604.506 449.664C598.764 457.457 595.893 467.848 595.893 480.836V522.672C595.893 537.027 593.637 550.426 589.125 562.867C584.75 575.445 577.23 586.451 566.566 595.885C555.902 605.455 541.137 612.906 522.27 618.238Z" fill="#413F3F"/>
</svg>
