<svg width="275" height="160" viewBox="0 0 275 160" fill="none" xmlns="http://www.w3.org/2000/svg">
<path d="M43.92 91H71.472V45.4H43.92V91ZM42.48 27.928C42.48 36.28 49.392 43.096 57.744 43.096C66.096 43.096 72.912 36.28 72.912 27.928C72.912 19.48 66.096 12.568 57.744 12.568C49.392 12.568 42.48 19.48 42.48 27.928Z" fill="#E4E4E4"/>
<path d="M75.7013 91H103.253V14.2H75.7013V91Z" fill="#E4E4E4"/>
<path d="M110.276 91H168.068V65.08H150.596L164.132 14.2H106.34V40.12H123.812L110.276 91Z" fill="#E4E4E4"/>
<path d="M171.139 91H230.371V65.08H213.091V50.296H204.451C201.667 50.296 199.651 48.184 199.651 45.208C199.651 42.232 201.667 40.12 204.451 40.12H230.371V14.2H171.139V91Z" fill="#E4E4E4"/>
<path fill-rule="evenodd" clip-rule="evenodd" d="M31.92 103V36.6408C30.9874 33.9093 30.48 30.9798 30.48 27.928C30.48 12.9015 42.7158 0.567993 57.744 0.567993C61.0031 0.567993 64.1189 1.14512 67.002 2.2H242.371V52.12H225.091V53.08H242.371V103H31.92ZM71.472 91V45.4H43.92V91H71.472ZM63.7013 41.8733C67.1153 40.4061 69.8903 37.7194 71.472 34.3674C71.6215 34.0507 71.7603 33.7281 71.8879 33.4C72.549 31.7011 72.912 29.8554 72.912 27.928C72.912 21.9451 69.4935 16.7326 64.5318 14.2C64.2595 14.061 63.9825 13.9301 63.7013 13.8076C61.8708 13.0102 59.8565 12.568 57.744 12.568C49.392 12.568 42.48 19.48 42.48 27.928C42.48 29.8554 42.8481 31.7011 43.5171 33.4C43.6412 33.7151 43.7757 34.0253 43.92 34.3299C46.3698 39.4993 51.677 43.096 57.744 43.096C59.8565 43.096 61.8708 42.6599 63.7013 41.8733ZM75.7013 91H103.253V14.2H75.7013V91ZM110.276 91H168.068V65.08H150.596L164.132 14.2H106.34V40.12H123.812L110.276 91ZM171.139 91H230.371V65.08H213.091V50.296H204.451C201.667 50.296 199.651 48.184 199.651 45.208C199.651 42.232 201.667 40.12 204.451 40.12H230.371V14.2H171.139V91Z" fill="#454545"/>
<path d="M12.28 136H32.568V120.192H41.72V136H62.008V105.6H56.504L62.072 84.8H37.88V99.648C37.88 104.064 32.568 104.064 32.568 99.648V84.8H12.28V136Z" fill="white"/>
<path d="M85.3315 137.088C97.1075 137.088 106.772 127.68 106.772 116.16C106.772 104.576 97.1715 95.296 85.3315 95.296C73.4275 95.296 63.8275 104.64 63.8275 116.16C63.8275 127.68 73.4275 137.088 85.3315 137.088ZM80.3395 116.224C80.3395 113.536 82.5795 111.296 85.2675 111.296C87.9555 111.296 90.1955 113.536 90.1955 116.224C90.1955 118.912 87.9555 121.152 85.2675 121.152C82.5795 121.152 80.3395 118.912 80.3395 116.224Z" fill="white"/>
<path d="M108.718 136H126.446V114.432C126.446 112.32 128.046 110.72 130.158 110.72C132.27 110.72 133.806 112.32 133.806 114.432V136H151.534V96.32H108.718V136Z" fill="white"/>
<path d="M154.093 136H172.461V105.6H154.093V136ZM153.133 93.952C153.133 99.52 157.741 104.064 163.309 104.064C168.877 104.064 173.421 99.52 173.421 93.952C173.421 88.32 168.877 83.712 163.309 83.712C157.741 83.712 153.133 88.32 153.133 93.952Z" fill="white"/>
<path d="M175.03 136H192.758V114.432C192.758 112.32 194.358 110.72 196.47 110.72C198.582 110.72 200.118 112.32 200.118 114.432V136H217.846V96.32H175.03V136Z" fill="white"/>
<path d="M222.389 147.52H260.213V133.184H251.957C258.357 129.792 262.709 123.392 262.709 116.16C262.709 107.264 257.013 99.712 249.013 96.704V84.8H233.397V96.704C225.397 99.776 219.765 107.328 219.765 116.16C219.765 123.392 224.117 129.792 230.517 133.184H222.389V147.52ZM236.277 116.224C236.277 113.536 238.517 111.296 241.205 111.296C243.893 111.296 246.133 113.536 246.133 116.224C246.133 118.912 243.893 121.152 241.205 121.152C238.517 121.152 236.277 118.912 236.277 116.224Z" fill="white"/>
<path fill-rule="evenodd" clip-rule="evenodd" d="M0.280029 148V72.8H77.7069L74.418 85.0859C77.8541 83.9239 81.5297 83.296 85.3315 83.296C89.3065 83.296 93.1457 83.9843 96.7175 85.2543V84.32H143.33C146.917 76.8833 154.516 71.712 163.309 71.712C172.154 71.712 179.678 76.914 183.231 84.32H221.397V72.8H261.013V89.6385C269.234 95.5536 274.709 105.133 274.709 116.16C274.709 120.453 273.807 124.494 272.213 128.156V159.52H210.389V148H96.7175V147.107C93.1449 148.391 89.3055 149.088 85.3315 149.088C81.3747 149.088 77.5586 148.406 74.008 147.15V148H0.280029ZM62.008 136V105.6H56.504L62.072 84.8H37.88V99.648C37.88 104.064 32.568 104.064 32.568 99.648V84.8H12.28V136H32.568V120.192H41.72V136H62.008ZM70.025 101.496C68.7754 102.725 67.6821 104.102 66.7759 105.6C66.3073 106.374 65.8888 107.181 65.5245 108.015C64.4316 110.517 63.8275 113.27 63.8275 116.16C63.8275 123.655 67.8907 130.255 74.008 133.953C77.2937 135.939 81.172 137.088 85.3315 137.088C89.504 137.088 93.4113 135.907 96.7175 133.869C102.743 130.156 106.772 123.598 106.772 116.16C106.772 108.669 102.757 102.141 96.7175 98.4635C93.4182 96.4544 89.5147 95.296 85.3315 95.296C81.172 95.296 77.2937 96.4369 74.008 98.4128C72.5556 99.2863 71.219 100.323 70.025 101.496ZM126.446 136V114.432C126.446 112.32 128.046 110.72 130.158 110.72C132.27 110.72 133.806 112.32 133.806 114.432V136H151.534V96.32H108.718V136H126.446ZM153.139 93.6C153.135 93.7169 153.133 93.8342 153.133 93.952C153.133 94.7669 153.231 95.56 153.417 96.32C153.579 96.9806 153.807 97.6163 154.093 98.2199C155.688 101.587 159.102 103.953 163.03 104.06C163.123 104.063 163.215 104.064 163.309 104.064C163.384 104.064 163.459 104.063 163.534 104.062C167.473 103.975 170.871 101.614 172.461 98.2449C172.749 97.6339 172.978 96.9898 173.14 96.32C173.323 95.56 173.421 94.7669 173.421 93.952C173.421 93.8342 173.419 93.7169 173.415 93.6C173.271 89.3353 170.523 85.7108 166.735 84.32C165.664 83.9267 164.51 83.712 163.309 83.712C162.107 83.712 160.95 83.9267 159.874 84.32C156.07 85.7108 153.284 89.3353 153.139 93.6ZM175.03 96.32V136H192.758V114.432C192.758 112.32 194.358 110.72 196.47 110.72C198.582 110.72 200.118 112.32 200.118 114.432V136H217.846V96.32H175.03ZM229.846 98.4519C223.78 102.158 219.765 108.703 219.765 116.16C219.765 117.892 220.015 119.577 220.483 121.184C220.929 122.717 221.573 124.179 222.389 125.545C224.161 128.513 226.741 131.024 229.846 132.813C230.067 132.94 230.291 133.064 230.517 133.184H222.389V147.52H260.213V133.184H251.957C255.439 131.339 258.314 128.603 260.213 125.327C260.968 124.024 261.569 122.636 261.992 121.184C262.459 119.577 262.709 117.892 262.709 116.16C262.709 107.264 257.013 99.712 249.013 96.704V84.8H233.397V96.704C232.152 97.1821 230.964 97.7688 229.846 98.4519ZM172.461 105.6H154.093V136H172.461V105.6Z" fill="#4D4C4C"/>
<path d="M91 116C91 118.761 88.7614 121 86 121C83.2386 121 81 118.761 81 116C81 113.239 83.2386 111 86 111C88.7614 111 91 113.239 91 116Z" fill="#4D4C4C"/>
<path d="M247 116C247 118.761 244.761 121 242 121C239.239 121 237 118.761 237 116C237 113.239 239.239 111 242 111C244.761 111 247 113.239 247 116Z" fill="#4D4C4C"/>
</svg>
