<svg width="800" height="800" viewBox="0 0 800 800" fill="none" xmlns="http://www.w3.org/2000/svg">
<circle cx="400" cy="400" r="400" fill="#413F3F"/>
<path d="M761 400C761 599.375 599.375 761 400 761C200.625 761 39 599.375 39 400C39 200.625 200.625 39 400 39C599.375 39 761 200.625 761 400Z" fill="#EAEAEA"/>
<path fill-rule="evenodd" clip-rule="evenodd" d="M434.857 340.04C423.781 324.296 417.202 305.121 417.055 284.397C416.671 230.27 460.238 186.08 514.366 185.695C568.493 185.311 612.683 228.879 613.068 283.006C613.279 312.821 600.143 339.606 579.32 357.705L579.906 440.154C600.982 457.955 614.498 484.551 614.709 514.366C615.093 568.493 571.526 612.683 517.399 613.067C463.271 613.452 419.081 569.884 418.697 515.757C418.674 512.517 418.809 509.308 419.096 506.137L370.514 468.182C378.566 482.289 383.227 498.604 383.35 516.007C383.734 570.135 340.167 614.325 286.039 614.709C231.912 615.093 187.722 571.526 187.337 517.398C187.12 486.726 201.027 459.264 222.9 441.16L222.337 361.765C200.208 343.974 185.913 316.712 185.696 286.039C185.312 231.912 228.879 187.721 283.006 187.337C337.134 186.953 381.324 230.521 381.708 284.648C381.735 288.412 381.548 292.133 381.158 295.801L434.857 340.04ZM355.273 305.238C357.075 298.743 358.016 291.892 357.965 284.817C357.674 243.802 324.19 210.789 283.175 211.08C242.16 211.371 209.147 244.856 209.439 285.871C209.631 312.931 224.272 336.509 245.993 349.336L246.73 453.252C225.194 466.386 210.888 490.169 211.08 517.23C211.371 558.245 244.856 591.257 285.871 590.966C326.885 590.675 359.898 557.191 359.607 516.176C359.441 492.749 348.445 471.933 331.403 458.442L331.048 408.49L332.66 408.479L444.869 496.142C443.239 502.347 442.392 508.866 442.44 515.588C442.731 556.603 476.215 589.616 517.23 589.325C558.245 589.033 591.258 555.549 590.966 514.534C590.78 488.242 576.953 465.239 556.247 452.188L555.493 346.007C576.012 332.664 589.511 309.466 589.325 283.175C589.034 242.16 555.549 209.147 514.534 209.438C473.52 209.729 440.507 243.214 440.798 284.229C440.97 308.487 452.754 329.946 470.839 343.371L471.237 399.435L469.625 399.446L355.273 305.238Z" fill="#413F3F"/>
<path fill-rule="evenodd" clip-rule="evenodd" d="M461.219 433.33C476.678 421.861 495.682 414.801 516.395 414.132C570.496 412.384 615.77 454.825 617.517 508.925C619.265 563.026 576.824 608.3 522.724 610.047C492.924 611.01 465.817 598.552 447.199 578.193L364.791 580.855C347.526 602.374 321.279 616.555 291.479 617.517C237.379 619.265 192.105 576.825 190.357 522.724C188.61 468.623 231.05 423.35 285.151 421.602C288.389 421.497 291.6 421.552 294.777 421.759L331.496 372.236C317.597 380.64 301.404 385.711 284.009 386.273C229.909 388.021 184.635 345.58 182.887 291.48C181.14 237.379 223.58 192.105 277.681 190.357C308.338 189.367 336.142 202.578 354.79 223.988L434.147 221.425C451.375 198.855 478.268 183.878 508.925 182.887C563.026 181.14 608.299 223.58 610.047 277.681C611.795 331.781 569.354 377.055 515.254 378.803C511.492 378.924 507.767 378.831 504.091 378.534L461.219 433.33ZM494.004 352.894C500.543 354.532 507.416 355.3 514.487 355.072C555.481 353.747 587.64 319.441 586.316 278.447C584.992 237.453 550.686 205.294 509.692 206.618C482.644 207.492 459.443 222.723 447.167 244.76L343.303 248.115C329.63 226.917 305.494 213.215 278.447 214.089C237.453 215.413 205.294 249.719 206.618 290.713C207.943 331.707 242.249 363.866 283.243 362.542C306.658 361.785 327.191 350.269 340.248 332.892L390.175 331.279L390.227 332.89L305.418 447.271C299.175 445.798 292.636 445.116 285.917 445.333C244.923 446.657 212.764 480.963 214.088 521.957C215.413 562.952 249.719 595.11 290.713 593.786C316.991 592.937 339.639 578.536 352.164 557.507L458.293 554.079C472.148 574.255 495.679 587.165 521.957 586.316C562.952 584.992 595.11 550.686 593.786 509.692C592.462 468.697 558.156 436.539 517.162 437.863C492.916 438.646 471.76 450.967 458.795 469.385L402.759 471.195L402.707 469.584L494.004 352.894Z" fill="#413F3F"/>
</svg>
