<svg width="1035" height="779" viewBox="0 0 1035 779" fill="none" xmlns="http://www.w3.org/2000/svg">
<circle cx="257.387" cy="257.387" r="182" transform="rotate(-45 257.387 257.387)" fill="#90A89F"/>
<circle cx="514.774" cy="514.773" r="182" transform="rotate(-45 514.774 514.773)" fill="#E5989B"/>
<rect x="98.2878" y="355.674" width="364" height="419" rx="48" transform="rotate(-45 98.2878 355.674)" fill="#90A89F"/>
<circle cx="262.337" cy="263.043" r="107.5" transform="rotate(-45 262.337 263.043)" fill="#5F5858"/>
<circle cx="182" cy="182" r="182" transform="matrix(-0.707107 -0.707107 -0.707107 0.707107 1034.24 263.467)" fill="#ACC3BA"/>
<circle cx="182" cy="182" r="182" transform="matrix(-0.707107 -0.707107 -0.707107 0.707107 776.854 520.854)" fill="#ACC4BA"/>
<rect width="364" height="419" rx="48" transform="matrix(-0.707107 -0.707107 -0.707107 0.707107 935.953 361.754)" fill="#ACC3BA"/>
<circle cx="107.5" cy="107.5" r="107.5" transform="matrix(-0.707107 -0.707107 -0.707107 0.707107 923.932 269.124)" fill="#5F5858"/>
</svg>
