<svg width="416" height="140" viewBox="0 0 416 140" fill="none" xmlns="http://www.w3.org/2000/svg">
<path d="M19.1355 124.86V99.6379H33.458C22.1805 93.6701 14.5117 82.41 14.5117 69.6861C14.5117 54.1472 24.436 40.8603 38.5329 35.4554V14.5117H66.0501V35.4554C80.147 40.7477 90.1841 54.0346 90.1841 69.6861C90.1841 82.41 82.5153 93.6701 71.2378 99.6379H85.7858V124.86H19.1355ZM43.6078 69.7987C43.6078 74.5279 47.5549 78.4689 52.2915 78.4689C57.0281 78.4689 60.9752 74.5279 60.9752 69.7987C60.9752 65.0694 57.0281 61.1284 52.2915 61.1284C47.5549 61.1284 43.6078 65.0694 43.6078 69.7987Z" fill="#403D39"/>
<path d="M130.048 106.507C109.071 106.507 92.155 89.9542 92.155 69.6861C92.155 49.4179 109.071 32.9782 130.048 32.9782C150.911 32.9782 167.827 49.3053 167.827 69.6861C167.827 89.9542 150.798 106.507 130.048 106.507ZM121.251 69.7987C121.251 74.5279 125.198 78.4689 129.935 78.4689C134.671 78.4689 138.618 74.5279 138.618 69.7987C138.618 65.0694 134.671 61.1284 129.935 61.1284C125.198 61.1284 121.251 65.0694 121.251 69.7987Z" fill="#403D39"/>
<path d="M171.256 104.592V14.5117H203.623V104.592H171.256Z" fill="#403D39"/>
<path d="M235.668 104.592C221.571 104.592 208.038 91.0802 208.038 77.0051V34.7798H282.131V88.2652H257.321V104.592H235.668ZM237.021 63.6056C237.021 68.2223 240.63 71.8255 245.141 71.8255C249.652 71.8255 253.374 68.2223 253.374 63.6056C253.374 59.1016 249.652 55.4984 245.141 55.4984C240.63 55.4984 237.021 59.1016 237.021 63.6056Z" fill="#403D39"/>
<path d="M286.345 104.592V34.7798H401.488V104.592H370.25V65.5198C370.25 62.4796 367.994 60.115 364.949 60.115C361.904 60.115 359.536 62.4796 359.536 65.5198V104.592H328.297V65.5198C328.297 62.4796 326.042 60.115 322.997 60.115C319.952 60.115 317.583 62.4796 317.583 65.5198V104.592H286.345Z" fill="#403D39"/>
<path fill-rule="evenodd" clip-rule="evenodd" d="M4.62379 139.372V89.841C1.6786 83.7428 0 76.9334 0 69.686C0 51.4418 9.6777 35.6492 24.0212 26.5798V0H80.5617V26.5268C84.4765 28.9797 88.0487 31.9371 91.1746 35.3124C100.825 24.9166 114.759 18.4665 130.047 18.4665C139.734 18.4665 148.886 21.0635 156.745 25.6261V0H218.135V20.2682H416V119.104H271.833V102.777H271.832V119.104H235.668C229.37 119.104 223.423 117.499 218.135 114.869V119.104H156.745V113.775C148.881 118.383 139.726 121.018 130.047 121.018C119.06 121.018 108.786 117.675 100.297 111.936V139.372H4.62379ZM99.3521 91.2695C99.6587 91.6805 99.9739 92.0853 100.297 92.4834C107.229 101.014 117.965 106.507 130.047 106.507C140.436 106.507 149.892 102.358 156.745 95.6717C163.581 89.0021 167.827 79.8074 167.827 69.686C167.827 59.4875 163.591 50.304 156.745 43.6734C149.909 37.0534 140.471 32.9782 130.047 32.9782C117.593 32.9782 106.57 38.7733 99.6694 47.7242C94.9471 53.8491 92.1549 61.4516 92.1549 69.686C92.1549 75.1929 93.4037 80.4255 95.6434 85.1262C96.677 87.2957 97.9217 89.3518 99.3521 91.2695ZM86.1749 85.1262C88.7367 80.465 90.184 75.2137 90.184 69.686C90.184 61.4252 87.388 53.8232 82.6748 47.7075C78.458 42.2361 72.7067 37.9544 66.05 35.4554V14.5116H38.5328V35.4554C24.4359 40.8602 14.5116 54.1471 14.5116 69.686C14.5116 75.2137 15.9589 80.465 18.5207 85.1262C18.719 85.487 18.9239 85.8443 19.1354 86.1979C22.481 91.7912 27.4589 96.4633 33.4579 99.6379H19.1354V124.86H85.7857V99.6379H71.2377C75.5012 97.3817 79.2489 94.3692 82.2615 90.8071C83.5841 89.2432 84.7651 87.5734 85.7857 85.8151C85.9182 85.587 86.0479 85.3573 86.1749 85.1262ZM171.256 104.592H203.623V14.5116H171.256V104.592ZM218.135 97.5403C223.072 101.846 229.313 104.592 235.668 104.592H257.321V88.2652H282.131V34.7798H208.038V77.0051C208.038 84.7349 212.119 92.2949 218.135 97.5403ZM286.345 104.592H317.583V65.5198C317.583 62.4796 319.952 60.115 322.997 60.115C326.042 60.115 328.297 62.4796 328.297 65.5198V104.592H359.536V65.5198C359.536 62.4796 361.904 60.115 364.949 60.115C367.994 60.115 370.25 62.4796 370.25 65.5198V104.592H401.488V34.7798H286.345V104.592ZM58.1193 69.7986C58.1193 66.4921 55.5482 63.9573 52.2914 63.9573C49.0346 63.9573 46.4635 66.4921 46.4635 69.7986C46.4635 73.1052 49.0346 75.64 52.2914 75.64C55.5482 75.64 58.1193 73.1052 58.1193 69.7986ZM135.763 69.7986C135.763 66.4921 133.191 63.9573 129.935 63.9573C126.678 63.9573 124.107 66.4921 124.107 69.7986C124.107 73.1052 126.678 75.64 129.935 75.64C133.191 75.64 135.763 73.1052 135.763 69.7986ZM251.533 63.6056C251.533 60.3176 248.754 57.3138 245.141 57.3138C241.789 57.3138 238.862 60.0572 238.862 63.6056C238.862 67.3965 241.921 70.01 245.141 70.01C248.623 70.01 251.533 67.1373 251.533 63.6056ZM43.6077 69.7986C43.6077 74.5279 47.5548 78.4689 52.2914 78.4689C57.028 78.4689 60.9751 74.5279 60.9751 69.7986C60.9751 65.0694 57.028 61.1284 52.2914 61.1284C47.5548 61.1284 43.6077 65.0694 43.6077 69.7986ZM121.251 69.7986C121.251 74.5279 125.198 78.4689 129.935 78.4689C134.671 78.4689 138.618 74.5279 138.618 69.7986C138.618 65.0694 134.671 61.1284 129.935 61.1284C125.198 61.1284 121.251 65.0694 121.251 69.7986ZM237.021 63.6056C237.021 68.2222 240.63 71.8255 245.141 71.8255C249.652 71.8255 253.374 68.2222 253.374 63.6056C253.374 59.1016 249.652 55.4983 245.141 55.4983C240.63 55.4983 237.021 59.1016 237.021 63.6056Z" fill="#403D39"/>
<path fill-rule="evenodd" clip-rule="evenodd" d="M11.8797 132.116V92.382H14.5015C9.95601 85.8801 7.25586 78.0971 7.25586 69.686C7.25586 52.728 17.05 38.144 31.277 30.7723V7.25574H73.3059V30.7415C80.6892 34.5191 86.9009 40.2583 91.1728 47.2853C99.0622 34.3263 113.584 25.7223 130.048 25.7223C143.517 25.7223 155.709 31.501 164.001 40.7545V7.25574H210.879V27.5239H408.744V111.848H279.089V95.5209H264.577V111.848H235.668C226.331 111.848 217.663 107.425 211.44 101.211C211.251 101.023 211.064 100.832 210.879 100.639V111.848H164.001V98.577C155.696 107.894 143.487 113.762 130.048 113.762C114.796 113.762 101.228 106.342 93.0416 94.9405V132.116H11.8797ZM91.3366 92.382C91.1545 92.0869 90.9759 91.7896 90.8008 91.4901C90.6025 91.79 90.4003 92.0873 90.1942 92.382H91.3366ZM71.2377 99.6378C74.8576 97.7222 78.1057 95.2614 80.8477 92.382C83.4094 89.6918 85.5294 86.6363 87.0982 83.3186C89.0817 79.1239 90.184 74.5101 90.184 69.686C90.184 64.6618 89.1498 59.8813 87.2791 55.5307C83.3219 46.328 75.6219 39.0487 66.0501 35.4553V14.5116H38.5329V35.4553C24.4359 40.8601 14.5117 54.147 14.5117 69.686C14.5117 78.3258 18.0475 86.2906 23.848 92.382C26.59 95.2614 29.8381 97.7222 33.458 99.6378H19.1355V124.86H85.7858V99.6378H71.2377ZM94.9105 83.484C100.525 96.9574 114.115 106.506 130.048 106.506C144.896 106.506 157.839 98.031 164.001 85.7833C166.45 80.9151 167.827 75.4508 167.827 69.686C167.827 63.8736 166.451 58.3909 164.001 53.5226C157.858 41.3205 144.961 32.9781 130.048 32.9781C114.26 32.9781 100.771 42.2912 95.0651 55.5401C93.1898 59.8939 92.1549 64.6729 92.1549 69.686C92.1549 74.5596 93.1331 79.2185 94.9105 83.484ZM171.256 104.592H203.623V14.5116H171.256V104.592ZM210.879 88.2993C215.58 97.5304 225.477 104.592 235.668 104.592H257.321V88.2651H282.131V34.7797H208.038V77.005C208.038 80.9048 209.077 84.7614 210.879 88.2993ZM286.345 104.592H317.583V65.5197C317.583 62.4795 319.952 60.1149 322.997 60.1149C326.042 60.1149 328.297 62.4795 328.297 65.5197V104.592H359.536V65.5197C359.536 62.4795 361.904 60.1149 364.949 60.1149C367.994 60.1149 370.25 62.4795 370.25 65.5197V104.592H401.488V34.7797H286.345V104.592ZM43.6078 69.7986C43.6078 74.5278 47.5549 78.4688 52.2915 78.4688C57.028 78.4688 60.9752 74.5278 60.9752 69.7986C60.9752 65.0693 57.028 61.1283 52.2915 61.1283C47.5549 61.1283 43.6078 65.0693 43.6078 69.7986ZM121.251 69.7986C121.251 74.5278 125.198 78.4688 129.935 78.4688C134.671 78.4688 138.618 74.5278 138.618 69.7986C138.618 65.0693 134.671 61.1283 129.935 61.1283C125.198 61.1283 121.251 65.0693 121.251 69.7986ZM237.021 63.6055C237.021 68.2222 240.63 71.8254 245.141 71.8254C249.652 71.8254 253.374 68.2222 253.374 63.6055C253.374 59.1015 249.652 55.4983 245.141 55.4983C240.63 55.4983 237.021 59.1015 237.021 63.6055Z" fill="white"/>
</svg>
